<?xml version="1.0" standalone="no"?><svg xmlns="http://www.w3.org/2000/svg" viewBox="0 0 1440 320"><path fill="#a2d9ff" fill-opacity="1" d="M0,128L0,128L53.3,128L53.3,256L106.7,256L106.7,160L160,160L160,192L213.3,192L213.3,32L266.7,32L266.7,32L320,32L320,128L373.3,128L373.3,32L426.7,32L426.7,64L480,64L480,64L533.3,64L533.3,192L586.7,192L586.7,256L640,256L640,224L693.3,224L693.3,160L746.7,160L746.7,96L800,96L800,128L853.3,128L853.3,128L906.7,128L906.7,0L960,0L960,192L1013.3,192L1013.3,192L1066.7,192L1066.7,192L1120,192L1120,32L1173.3,32L1173.3,64L1226.7,64L1226.7,192L1280,192L1280,256L1333.3,256L1333.3,224L1386.7,224L1386.7,96L1440,96L1440,320L1386.7,320L1386.7,320L1333.3,320L1333.3,320L1280,320L1280,320L1226.7,320L1226.7,320L1173.3,320L1173.3,320L1120,320L1120,320L1066.7,320L1066.7,320L1013.3,320L1013.3,320L960,320L960,320L906.7,320L906.7,320L853.3,320L853.3,320L800,320L800,320L746.7,320L746.7,320L693.3,320L693.3,320L640,320L640,320L586.7,320L586.7,320L533.3,320L533.3,320L480,320L480,320L426.7,320L426.7,320L373.3,320L373.3,320L320,320L320,320L266.7,320L266.7,320L213.3,320L213.3,320L160,320L160,320L106.7,320L106.7,320L53.3,320L53.3,320L0,320L0,320Z"></path></svg>